<svg version="1.1" xmlns="http://www.w3.org/2000/svg" xmlns:xlink="http://www.w3.org/1999/xlink">
  <symbol viewBox="0 0 20 20" id="inst" xmlns="http://www.w3.org/2000/svg">
    <path d="M13.75 0H6.25C2.79875 0 0 2.79875 0 6.25V13.75C0 17.2013 2.79875 20 6.25 20H13.75C17.2013 20 20 17.2013 20 13.75V6.25C20 2.79875 17.2013 0 13.75 0ZM18.125 13.75C18.125 16.1625 16.1625 18.125 13.75 18.125H6.25C3.8375 18.125 1.875 16.1625 1.875 13.75V6.25C1.875 3.8375 3.8375 1.875 6.25 1.875H13.75C16.1625 1.875 18.125 3.8375 18.125 6.25V13.75Z"/>
    <path d="M10 5C7.23875 5 5 7.23875 5 10C5 12.7613 7.23875 15 10 15C12.7613 15 15 12.7613 15 10C15 7.23875 12.7613 5 10 5ZM10 13.125C8.2775 13.125 6.875 11.7225 6.875 10C6.875 8.27625 8.2775 6.875 10 6.875C11.7225 6.875 13.125 8.27625 13.125 10C13.125 11.7225 11.7225 13.125 10 13.125Z"/>
    <path d="M15.375 5.29148C15.743 5.29148 16.0412 4.99319 16.0412 4.62523C16.0412 4.25727 15.743 3.95898 15.375 3.95898C15.007 3.95898 14.7087 4.25727 14.7087 4.62523C14.7087 4.99319 15.007 5.29148 15.375 5.29148Z"/>
  </symbol>

  <symbol id="twitter" viewBox="0 0 20 17" xmlns="http://www.w3.org/2000/svg">
    <path d="M20 1.92375C19.2563 2.25 18.4637 2.46625 17.6375 2.57125C18.4875 2.06375 19.1363 1.26625 19.4412 0.305C18.6488 0.7775 17.7738 1.11125 16.8412 1.2975C16.0887 0.49625 15.0162 0 13.8462 0C11.5763 0 9.74875 1.8425 9.74875 4.10125C9.74875 4.42625 9.77625 4.73875 9.84375 5.03625C6.435 4.87 3.41875 3.23625 1.3925 0.7475C1.03875 1.36125 0.83125 2.06375 0.83125 2.82C0.83125 4.24 1.5625 5.49875 2.6525 6.2275C1.99375 6.215 1.3475 6.02375 0.8 5.7225C0.8 5.735 0.8 5.75125 0.8 5.7675C0.8 7.76 2.22125 9.415 4.085 9.79625C3.75125 9.8875 3.3875 9.93125 3.01 9.93125C2.7475 9.93125 2.4825 9.91625 2.23375 9.86125C2.765 11.485 4.2725 12.6788 6.065 12.7175C4.67 13.8088 2.89875 14.4662 0.98125 14.4662C0.645 14.4662 0.3225 14.4513 0 14.41C1.81625 15.5813 3.96875 16.25 6.29 16.25C13.835 16.25 17.96 10 17.96 4.5825C17.96 4.40125 17.9538 4.22625 17.945 4.0525C18.7588 3.475 19.4425 2.75375 20 1.92375Z"/>
  </symbol>

  <symbol id="vk" viewBox="0 0 20 12" xmlns="http://www.w3.org/2000/svg">
    <path d="M19.8217 10.1784C19.768 10.0883 19.4355 9.36579 17.8353 7.88068C16.1602 6.32557 16.3852 6.57809 18.4029 3.88914C19.6317 2.25152 20.123 1.25145 19.9692 0.823916C19.823 0.416387 18.9192 0.523894 18.9192 0.523894L15.9139 0.541396C15.9139 0.541396 15.6914 0.511393 15.5252 0.610151C15.3639 0.707658 15.2601 0.932674 15.2601 0.932674C15.2601 0.932674 14.7839 2.20027 14.1488 3.27785C12.81 5.55176 12.2737 5.67177 12.0549 5.53051C11.5461 5.20174 11.6736 4.20792 11.6736 3.50286C11.6736 1.29895 12.0074 0.380134 11.0223 0.142616C10.6948 0.0638606 10.4548 0.0113567 9.61848 0.00260608C8.54591 -0.00864474 7.63709 0.00635635 7.1233 0.257625C6.78078 0.425137 6.51701 0.798915 6.67827 0.820166C6.87703 0.846418 7.32707 0.941425 7.56583 1.26645C7.87461 1.68523 7.86336 2.6278 7.86336 2.6278C7.86336 2.6278 8.04087 5.22174 7.44958 5.54426C7.0433 5.76553 6.487 5.31425 5.29317 3.25034C4.68187 2.19402 4.21934 1.02518 4.21934 1.02518C4.21934 1.02518 4.13058 0.807665 3.97182 0.691407C3.77931 0.550146 3.50929 0.505143 3.50929 0.505143L0.651577 0.522644C0.651577 0.522644 0.222795 0.535146 0.0652839 0.721409C-0.0747264 0.887671 0.054033 1.2302 0.054033 1.2302C0.054033 1.2302 2.2917 6.46433 4.82438 9.10327C7.1483 11.5222 9.786 11.3634 9.786 11.3634H10.9811C10.9811 11.3634 11.3424 11.3234 11.5261 11.1247C11.6961 10.9422 11.6899 10.5996 11.6899 10.5996C11.6899 10.5996 11.6661 8.99577 12.4112 8.7595C13.145 8.52698 14.0876 10.3096 15.0864 10.9959C15.8414 11.5147 16.4152 11.4009 16.4152 11.4009L19.0867 11.3634C19.0867 11.3634 20.4843 11.2772 19.8217 10.1784Z"/>
  </symbol>

  <symbol id="youtube" viewBox="0 0 20 14" xmlns="http://www.w3.org/2000/svg">
    <path d="M19.15 1.575C18.6075 0.61 18.0188 0.4325 16.82 0.365C15.6225 0.28375 12.6112 0.25 10.0025 0.25C7.38875 0.25 4.37625 0.28375 3.18 0.36375C1.98375 0.4325 1.39375 0.60875 0.84625 1.575C0.2875 2.53875 0 4.19875 0 7.12125C0 7.12375 0 7.125 0 7.125C0 7.1275 0 7.12875 0 7.12875V7.13125C0 10.0413 0.2875 11.7137 0.84625 12.6675C1.39375 13.6325 1.9825 13.8075 3.17875 13.8888C4.37625 13.9588 7.38875 14 10.0025 14C12.6112 14 15.6225 13.9587 16.8212 13.89C18.02 13.8087 18.6087 13.6338 19.1513 12.6688C19.715 11.715 20 10.0425 20 7.1325C20 7.1325 20 7.12875 20 7.12625C20 7.12625 20 7.12375 20 7.1225C20 4.19875 19.715 2.53875 19.15 1.575ZM7.5 10.875V3.375L13.75 7.125L7.5 10.875Z"/>
  </symbol>

</svg>