<svg width="67" height="94" viewBox="0 0 67 94" fill="none" xmlns="http://www.w3.org/2000/svg">
  <path d="M33.2611 0.529297C15.028 0.529297 0.194824 15.3642 0.194824 33.5995C0.194824 51.2396 30.4252 91.4298 31.7129 93.1339C32.0747 93.6203 32.6544 93.9043 33.2613 93.9043C33.8682 93.9043 34.4479 93.6203 34.8096 93.1339C36.0972 91.4298 66.3278 51.2397 66.3278 33.5995C66.3274 15.3642 51.4942 0.529297 33.2611 0.529297ZM33.2611 51.1073C23.6096 51.1073 15.7554 43.2522 15.7554 33.5995C15.7554 23.9469 23.6096 16.0917 33.2611 16.0917C42.9126 16.0917 50.7668 23.9469 50.7668 33.5995C50.7668 43.2522 42.9126 51.1073 33.2611 51.1073Z" fill="url(#paint0_linear)"/>
<defs>
<linearGradient id="paint0_linear" x1="-12.1534" y1="0.529296" x2="82.6061" y2="20.9022" gradientUnits="userSpaceOnUse">
<stop stop-color="#4BD8B5"/>
<stop offset="1" stop-color="#49D6DF"/>
</linearGradient>
</defs>
</svg>
